<?xml version="1.0" encoding="UTF-8" standalone="no"?>
<svg
   xmlns:dc="http://purl.org/dc/elements/1.1/"
   xmlns:cc="http://creativecommons.org/ns#"
   xmlns:rdf="http://www.w3.org/1999/02/22-rdf-syntax-ns#"
   xmlns:svg="http://www.w3.org/2000/svg"
   xmlns="http://www.w3.org/2000/svg"
   viewBox="0 0 793.70081 559.37012"
   height="559.37012"
   width="793.70081"
   xml:space="preserve"
   id="svg2"
   version="1.1"><metadata
     id="metadata8"><rdf:RDF><cc:Work
         rdf:about=""><dc:format>image/svg+xml</dc:format><dc:type
           rdf:resource="http://purl.org/dc/dcmitype/StillImage" /></cc:Work></rdf:RDF></metadata><defs
     id="defs6" /><g
     transform="matrix(1.3333333,0,0,-1.3333333,0,559.37013)"
     id="g10"><path
       id="path12"
       style="fill:none;stroke:#373535;stroke-width:0.5;stroke-linecap:butt;stroke-linejoin:miter;stroke-miterlimit:2.61312604;stroke-dasharray:none;stroke-opacity:1"
       d="M 0,419.5276 H 595.2756 V 0 H 0 Z" /><g
       id="g14"><path
         id="path16"
         style="fill:#363d69;fill-opacity:1;fill-rule:evenodd;stroke:none"
         d="m 76.9127,271.6138 h 69.0551 c 1.819,0 3.3072,-1.4879 3.3072,-3.3072 V 151.952 c 0,-1.819 -1.4882,-3.3071 -3.3072,-3.3071 H 76.9127 c -1.8187,0 -3.3074,1.4881 -3.3074,3.3071 v 116.3546 c 0,1.8193 1.4887,3.3072 3.3074,3.3072" /><g
         transform="scale(0.51347)"
         id="g18"><path
           id="path20"
           style="fill:none;stroke:#d3ae6e;stroke-width:2.68409991;stroke-linecap:butt;stroke-linejoin:miter;stroke-miterlimit:2.61312604;stroke-dasharray:none;stroke-opacity:1"
           d="m 258.925,302.1576 c -0.2004,-10e-4 -0.3996,-0.008 -0.6006,-0.008 -56.499,0 -102.3004,45.8019 -102.3004,102.3004 0,56.7496 46.1597,102.6133 102.901,102.2927" /></g><g
         transform="matrix(0,-0.50834,0.51347,0,0,0)"
         id="g22"><path
           id="path24"
           style="fill:none;stroke:#d3ae6e;stroke-width:2.68409991;stroke-linecap:butt;stroke-linejoin:miter;stroke-miterlimit:2.61312604;stroke-dasharray:none;stroke-opacity:1"
           d="m -305.2091,258.925 c -0.2883,-39.6822 -32.4275,-71.7627 -72.0389,-71.7627 -39.6107,0 -71.7497,32.0805 -72.038,71.7627" /></g><g
         transform="matrix(0,-0.50834,0.51347,0,0,0)"
         id="g26"><path
           id="path28"
           style="fill:none;stroke:#d3ae6e;stroke-width:2.68409991;stroke-linecap:butt;stroke-linejoin:miter;stroke-miterlimit:2.61312604;stroke-dasharray:none;stroke-opacity:1"
           d="m -305.2018,258.925 v -0.003 c 0,-22.5476 -18.214,-40.826 -40.6825,-40.826 -22.7018,0 -40.6823,18.5131 -40.6823,40.8288" /></g><path
         id="path30"
         style="fill:#d3ae6e;fill-opacity:1;fill-rule:evenodd;stroke:#d3ae6e;stroke-width:0.5;stroke-linecap:butt;stroke-linejoin:miter;stroke-miterlimit:2.61312604;stroke-dasharray:none;stroke-opacity:1"
         d="m 132.641,265.1134 c 2.6586,0 4.8138,-2.1555 4.8138,-4.8138 0,-2.6589 -2.1552,-4.8138 -4.8138,-4.8138 -2.6589,0 -4.8138,2.1549 -4.8138,4.8138 0,2.6583 2.1549,4.8138 4.8138,4.8138 z" /><path
         id="path32"
         style="fill:#d3ae6e;fill-opacity:1;fill-rule:evenodd;stroke:#d3ae6e;stroke-width:0.5;stroke-linecap:butt;stroke-linejoin:miter;stroke-miterlimit:2.61312604;stroke-dasharray:none;stroke-opacity:1"
         d="m 132.641,233.1153 c 2.6586,0 4.8138,-2.1552 4.8138,-4.8138 0,-2.6589 -2.1552,-4.8138 -4.8138,-4.8138 -2.6589,0 -4.8138,2.1549 -4.8138,4.8138 0,2.6586 2.1549,4.8138 4.8138,4.8138 z" /><path
         id="path34"
         style="fill:#d3ae6e;fill-opacity:1;fill-rule:evenodd;stroke:#d3ae6e;stroke-width:0.5;stroke-linecap:butt;stroke-linejoin:miter;stroke-miterlimit:2.61312604;stroke-dasharray:none;stroke-opacity:1"
         d="m 132.641,201.5549 c 2.6586,0 4.8138,-2.1554 4.8138,-4.8138 0,-2.6589 -2.1552,-4.814 -4.8138,-4.814 -2.6589,0 -4.8138,2.1551 -4.8138,4.814 0,2.6584 2.1549,4.8138 4.8138,4.8138 z" /><g
         transform="scale(1.13722)"
         id="g36"><path
           id="path38"
           style="fill:none;stroke:#d3ae6e;stroke-width:1.21210003;stroke-linecap:butt;stroke-linejoin:miter;stroke-miterlimit:2.61312604;stroke-dasharray:none;stroke-opacity:1"
           d="m 116.6357,154.2322 c 4.9176,0 8.9037,-3.9863 8.9037,-8.9039 0,-4.917 -3.9861,-8.9033 -8.9037,-8.9033 -4.9169,0 -8.9033,3.9863 -8.9033,8.9033 0,4.9176 3.9864,8.9039 8.9033,8.9039 z" /></g><path
         id="path40"
         style="fill:#d3ae6e;fill-opacity:1;fill-rule:evenodd;stroke:none"
         d="m 132.6407,175.3963 c 5.5922,0 10.1254,-4.5335 10.1254,-10.1257 0,-5.5919 -4.5332,-10.1253 -10.1254,-10.1253 -5.5919,0 -10.125,4.5334 -10.125,10.1253 0,5.5922 4.5331,10.1257 10.125,10.1257" /><path
         id="path42"
         style="fill:#d3ae6e;fill-opacity:1;fill-rule:evenodd;stroke:none"
         d="m 111.9141,244.1106 c 2.2119,0 4.005,-1.7935 4.005,-4.0053 0,-2.2119 -1.7931,-4.0051 -4.005,-4.0051 -2.2119,0 -4.0054,1.7932 -4.0054,4.0051 0,2.2118 1.7935,4.0053 4.0054,4.0053" /><path
         id="path44"
         style="fill:#d3ae6e;fill-opacity:1;fill-rule:evenodd;stroke:none"
         d="m 116.3424,210.7604 c 2.2121,0 4.0053,-1.7932 4.0053,-4.0053 0,-2.2116 -1.7932,-4.0051 -4.0053,-4.0051 -2.2116,0 -4.0051,1.7935 -4.0051,4.0051 0,2.2121 1.7935,4.0053 4.0051,4.0053" /><path
         id="path46"
         style="fill:#d3ae6e;fill-opacity:1;fill-rule:evenodd;stroke:none"
         d="m 93.0441,223.8925 c 2.0206,0 3.6584,-1.6379 3.6584,-3.6584 0,-2.0205 -1.6378,-3.6584 -3.6584,-3.6584 -2.0208,0 -3.6589,1.6379 -3.6589,3.6584 0,2.0205 1.6381,3.6584 3.6589,3.6584" /><path
         id="path48"
         style="fill:#d3ae6e;fill-opacity:1;fill-rule:evenodd;stroke:none"
         d="m 88.6153,199.9009 c 1.3615,0 2.465,-1.1035 2.465,-2.465 0,-1.3609 -1.1035,-2.4647 -2.465,-2.4647 -1.3612,0 -2.4647,1.1038 -2.4647,2.4647 0,1.3615 1.1035,2.465 2.4647,2.465" /><path
         id="path50"
         style="fill:#d3ae6e;fill-opacity:1;fill-rule:evenodd;stroke:none"
         d="m 93.0056,183.3024 c 1.1908,0 2.1566,-0.9655 2.1566,-2.1564 0,-1.1911 -0.9658,-2.1566 -2.1566,-2.1566 -1.1911,0 -2.1566,0.9655 -2.1566,2.1566 0,1.1909 0.9655,2.1564 2.1566,2.1564" /><path
         id="path52"
         style="fill:#d3ae6e;fill-opacity:1;fill-rule:evenodd;stroke:none"
         d="m 108.3328,174.4452 c 1.1911,0 2.1566,-0.9657 2.1566,-2.1566 0,-1.1911 -0.9655,-2.1566 -2.1566,-2.1566 -1.1908,0 -2.1563,0.9655 -2.1563,2.1566 0,1.1909 0.9655,2.1566 2.1563,2.1566" /><path
         id="path54"
         style="fill:#d3ae6e;fill-opacity:1;fill-rule:evenodd;stroke:none"
         d="m 106.3301,192.9495 c 1.7226,0 3.1195,-1.3966 3.1195,-3.1192 0,-1.7229 -1.3969,-3.1193 -3.1195,-3.1193 -1.7226,0 -3.1192,1.3964 -3.1192,3.1193 0,1.7226 1.3966,3.1192 3.1192,3.1192" /><path
         id="path56"
         style="fill:#363d69;fill-opacity:1;fill-rule:nonzero;stroke:none"
         d="m 197.3948,206.1468 c 5.3365,0 11.6734,0.5836 15.0089,1.9179 1.4173,0.5836 1.7509,1.0006 2.1679,2.4179 0.834,2.8353 1.8343,10.0894 1.8343,11.09 0,0.6673 -0.1667,1.2507 -0.7503,1.2507 -0.6673,0 -0.834,-0.3337 -1.084,-1.6676 -0.3336,-1.501 -1.4176,-3.9189 -2.8352,-5.5032 -3.3352,-3.8356 -7.8378,-4.6695 -15.2589,-4.6695 -11.1733,0 -26.2655,9.839 -26.2655,29.6844 0,8.0881 1.584,16.0095 7.6714,21.596 3.6686,3.3355 8.4214,5.1695 15.6756,5.1695 7.6714,0 14.1752,-2.2512 16.9268,-5.1695 2.0846,-2.1679 3.1685,-5.0862 3.2519,-7.6714 0,-1.1673 0.1669,-1.8343 0.8339,-1.8343 0.7504,0 0.917,0.667 1.0007,1.9179 0.1666,1.6676 0.0833,6.2538 0.25,9.0054 0.1666,2.9183 0.4169,3.9189 0.4169,4.5859 0,0.5003 -0.3333,0.9173 -1.2509,1.0006 -2.5016,0.2503 -5.1695,1.0007 -8.3381,1.4176 -3.8356,0.5003 -6.9208,0.834 -12.0906,0.834 -12.424,0 -20.3451,-3.3355 -26.3489,-8.8387 -8.0047,-7.3378 -9.756,-17.1771 -9.756,-22.847 0,-8.0881 2.1682,-17.4268 10.3397,-24.5979 7.588,-6.5872 17.1768,-9.0887 28.6004,-9.0887 z m 43.5257,40.024 c 0,12.6737 0,15.0086 0.167,17.6769 0.1666,2.9183 0.8336,4.3359 3.0849,4.7528 1.0006,0.1667 2.3349,0.2503 3.2519,0.2503 1.0006,0 1.501,0.1667 1.501,0.7504 0,0.5836 -0.5837,0.7503 -1.751,0.7503 -3.2519,0 -9.3387,-0.2503 -11.34,-0.2503 -2.2516,0 -7.5047,0.2503 -11.4236,0.2503 -1.2507,0 -1.8343,-0.1667 -1.8343,-0.7503 0,-0.5837 0.5003,-0.7504 1.4176,-0.7504 1.084,0 2.0843,-0.0836 2.7516,-0.2503 2.7516,-0.5836 3.4186,-1.9179 3.5852,-4.7528 0.167,-2.6683 0.167,-5.0032 0.167,-17.6769 v -14.6755 c 0,-7.6714 0,-14.2585 -0.417,-17.7607 -0.3333,-2.418 -0.7506,-4.2526 -2.4182,-4.5859 -0.7503,-0.167 -1.751,-0.3337 -3.0016,-0.3337 -1.0007,0 -1.334,-0.25 -1.334,-0.667 0,-0.5836 0.5834,-0.8339 1.6676,-0.8339 1.6674,0 3.8353,0.1667 5.7535,0.1667 2.0007,0.0836 3.8353,0.0836 4.7526,0.0836 3.4185,0 6.4204,-0.0836 10.1727,-0.2503 3.7522,-0.0834 8.088,-0.25 14.0918,-0.25 4.3356,0 4.7529,0.4167 5.2532,2.2512 0.667,2.418 1.2506,8.6721 1.2506,9.5891 0,1.0006 -0.0833,1.4173 -0.6672,1.4173 -0.667,0 -0.8337,-0.5003 -0.917,-1.2506 -0.1667,-1.584 -1.1674,-3.9189 -2.168,-5.0029 -2.0849,-2.2513 -5.3368,-2.3349 -9.756,-2.3349 -6.5035,0 -8.6717,0.5839 -10.0893,1.8346 -1.751,1.5009 -1.751,7.2541 -1.751,17.9274 z m 36.2718,-14.6755 c 0,-8.0881 0,-14.6755 -0.4172,-18.1774 -0.25,-2.4186 -0.7503,-3.8359 -2.418,-4.1692 -0.7503,-0.167 -1.7509,-0.3337 -3.0019,-0.3337 -1.0006,0 -1.3339,-0.25 -1.3339,-0.667 0,-0.5836 0.5836,-0.8339 1.6676,-0.8339 3.3352,0 8.5884,0.2503 10.506,0.2503 2.2516,0 7.5048,-0.2503 13.0082,-0.2503 0.917,0 1.584,0.2503 1.584,0.8339 0,0.417 -0.417,0.667 -1.334,0.667 -1.2506,0 -3.0852,0.1667 -4.2525,0.3337 -2.5016,0.3333 -3.0855,1.8343 -3.3355,4.0855 -0.3334,3.5856 -0.3334,10.173 -0.3334,18.2611 v 14.6755 c 0,12.6737 0,15.0086 0.1667,17.6769 0.1667,2.9183 0.8339,4.3359 3.0849,4.7528 1.0007,0.1667 1.6679,0.2503 2.5016,0.2503 0.834,0 1.3343,0.1667 1.3343,0.8337 0,0.5003 -0.667,0.667 -1.751,0.667 -3.1685,0 -8.0881,-0.2503 -10.173,-0.2503 -2.4179,0 -7.6711,0.2503 -10.8396,0.2503 -1.334,0 -2.0013,-0.1667 -2.0013,-0.667 0,-0.667 0.5003,-0.8337 1.3343,-0.8337 1.0006,0 2.0846,-0.0836 3.0019,-0.3336 1.8343,-0.417 2.6682,-1.8346 2.8349,-4.6695 0.1669,-2.6683 0.1669,-5.0032 0.1669,-17.6769 z m 37.7167,22.1797 h 0.25 c 1.5007,-1.584 10.7564,-12.007 19.8312,-21.0127 8.6718,-8.5881 19.345,-19.5114 24.584,-24.5143 0.917,-0.9173 1.9177,-1.8346 2.8352,-1.8346 0.7504,0 1.0837,0.7507 1.0837,2.5852 l 0.9173,52.6142 c 0.0834,4.6695 0.7506,6.4205 3.0853,7.0877 1.0006,0.2503 1.6676,0.2503 2.5015,0.2503 1.0004,0 1.5007,0.2501 1.5007,0.7504 0,0.667 -0.834,0.7503 -1.9176,0.7503 -4.0859,0 -7.2545,-0.2503 -8.1715,-0.2503 -1.7512,0 -5.7535,0.2503 -10.0754,0.2503 -1.251,0 -2.168,-0.0833 -2.168,-0.7503 0,-0.5003 0.3334,-0.7504 1.334,-0.7504 1.1673,0 3.1686,0 4.4053,-0.5003 2.0013,-0.8339 2.7516,-2.4185 2.8352,-7.5047 l 0.8337,-37.4386 h -0.417 c -1.4173,1.3337 -12.6603,13.3413 -18.3302,19.0111 -12.1601,12.0906 -24.8343,25.6819 -25.835,26.7659 -1.4312,1.5009 -2.1815,2.5849 -3.0988,2.5849 -0.834,0 -1.084,-1.1676 -1.084,-2.8352 l -0.7506,-49.3625 c -0.0833,-7.2542 -0.4167,-9.6721 -2.5846,-10.3394 -1.1676,-0.3334 -2.6685,-0.417 -3.7522,-0.417 -0.834,0 -1.3343,-0.1667 -1.3343,-0.667 0,-0.7503 0.7503,-0.8339 1.8346,-0.8339 4.3356,0 8.2548,0.2503 9.0051,0.2503 1.5982,0 4.9334,-0.2503 10.3532,-0.2503 1.1676,0 1.9182,0.1667 1.9182,0.8339 0,0.5003 -0.5003,0.667 -1.4178,0.667 -1.334,0 -2.9183,0.0836 -4.3356,0.584 -1.6677,0.5833 -2.7519,2.7513 -2.9186,9.2551 z m 71.4311,-22.1797 c 0,-8.0881 0,-14.6755 -0.417,-18.1774 -0.2503,-2.4186 -0.7506,-3.8359 -2.4179,-4.1692 -0.7506,-0.167 -1.7513,-0.3337 -3.0019,-0.3337 -1.0007,0 -1.334,-0.25 -1.334,-0.667 0,-0.5836 0.5834,-0.8339 1.6676,-0.8339 3.335,0 8.5884,0.2503 10.5061,0.2503 2.2512,0 7.5044,-0.2503 13.0079,-0.2503 0.917,0 1.584,0.2503 1.584,0.8339 0,0.417 -0.4167,0.667 -1.3337,0.667 -1.251,0 -3.0855,0.1667 -4.2529,0.3337 -2.5015,0.3333 -3.0852,1.8343 -3.3355,4.0855 -0.3331,3.5856 -0.3331,10.173 -0.3331,18.2611 v 14.6755 c 0,12.6737 0,15.0086 0.1667,17.6769 0.1664,2.9183 0.834,4.3359 3.085,4.7528 1.0006,0.1667 1.6679,0.2503 2.5015,0.2503 0.834,0 1.3343,0.1667 1.3343,0.8337 0,0.5003 -0.667,0.667 -1.7512,0.667 -3.1686,0 -8.0881,-0.2503 -10.1727,-0.2503 -2.418,0 -7.6714,0.2503 -10.8397,0.2503 -1.334,0 -2.0013,-0.1667 -2.0013,-0.667 0,-0.667 0.5003,-0.8337 1.3343,-0.8337 1.0006,0 2.0843,-0.0836 3.0019,-0.3336 1.834,-0.417 2.668,-1.8346 2.8346,-4.6695 0.167,-2.6683 0.167,-5.0032 0.167,-17.6769 z m 57.6176,-25.3485 c 21.179,0 34.5203,15.0925 34.5203,34.1869 0,19.0948 -12.924,31.1854 -33.6864,31.1854 -25.0152,0 -34.4372,-18.428 -34.4372,-32.6863 0,-14.7586 9.6723,-32.686 33.6033,-32.686 z m 3.5019,4.1692 c -16.0092,0 -25.5983,13.7582 -25.5983,31.1017 0,20.7624 10.9228,26.0989 20.5121,26.0989 13.6746,0 24.4312,-11.5903 24.4312,-30.2678 0,-24.0979 -13.5082,-26.9328 -19.345,-26.9328 z m 53.115,-4.1692 c 4.4192,0 9.0887,0.7506 13.2579,3.4188 6.0035,3.9189 7.8378,9.6724 7.8378,14.5086 0,7.9211 -3.5852,13.6749 -13.6746,21.2627 l -2.3349,1.7509 c -6.9208,5.2529 -8.8384,8.1715 -8.8384,12.007 0,5.0032 3.7522,8.5884 9.9227,8.5884 5.4198,0 7.8378,-2.5015 9.0884,-4.0855 1.7513,-2.168 2.1679,-4.7532 2.1679,-5.5035 0,-1.0006 0.2503,-1.5009 0.834,-1.5009 0.667,0 0.9173,0.6672 0.9173,2.5015 0,6.5041 0.3336,8.9221 0.3336,10.0061 0,0.5836 -0.4172,0.8336 -1.1676,1.0003 -2.1679,0.5839 -5.6701,1.4179 -11.0899,1.4179 -11.5903,0 -19.2615,-6.5874 -19.2615,-15.7595 0,-6.7541 3.1689,-12.5907 12.3407,-19.7617 l 3.8358,-3.0019 c 6.9208,-5.4199 8.1714,-9.2554 8.1714,-13.3413 0,-4.4192 -3.6688,-9.5054 -11.1733,-9.5054 -5.1698,0 -10.0893,2.251 -11.9239,8.4214 -0.4167,1.4176 -0.7503,3.1689 -0.7503,4.2526 0,0.667 -0.0834,1.4173 -0.8337,1.4173 -0.667,0 -0.917,-0.917 -1.0006,-2.1677 -0.0834,-1.3339 -0.4167,-6.3371 -0.4167,-10.9233 0,-1.8343 0.25,-2.251 1.584,-2.8349 3.5855,-1.5843 7.3374,-2.1679 12.1739,-2.1679" /><path
         id="path58"
         style="fill:#d3ae6e;fill-opacity:1;fill-rule:nonzero;stroke:none"
         d="m 195.7683,157.712 c 0,2.6059 0,4.6902 0.0521,6.2538 0.0519,1.8238 0.5732,2.7097 1.9803,2.9705 0.6253,0.1043 0.9902,0.1564 1.4071,0.1564 0.3649,0 0.6775,0.1041 0.6775,0.4167 0,0.417 -0.3648,0.5213 -1.0423,0.5213 -1.72,0 -4.4818,-0.1562 -6.0973,-0.1562 -1.5633,0 -4.8467,0.1562 -7.5566,0.1562 -0.7296,0 -1.0942,-0.1043 -1.0942,-0.5213 0,-0.3126 0.3127,-0.4167 0.7815,-0.4167 0.7297,0 1.6155,-0.0521 2.0322,-0.1564 1.7201,-0.3649 2.1889,-1.1988 2.2411,-2.9705 0.0524,-1.5636 0.0524,-3.5438 0.0524,-6.1495 v -4.8988 c 0,-0.8858 -0.2086,-1.5636 -0.9904,-1.9281 -1.2507,-0.5732 -3.0748,-0.5732 -4.4294,-0.5732 -10.9962,0 -18.1358,8.3903 -18.1358,19.5948 0,6.41 1.876,10.3187 4.7942,12.7678 3.6479,3.0229 7.4526,3.2312 10.3187,3.2312 5.889,0 10.0579,-2.3972 11.6215,-4.0649 1.3549,-1.4592 1.6157,-3.1269 1.7719,-4.3254 0.0519,-0.4169 0.1565,-0.6774 0.521,-0.6774 0.417,0 0.5735,0.2605 0.5735,1.0944 0,6.5143 0.3645,7.9733 0.3645,8.5468 0,0.3645 -0.104,0.5731 -0.7293,0.6253 -1.1988,0.0519 -3.0229,0.3645 -4.1171,0.5732 -1.0426,0.2086 -5.6285,0.8339 -9.2242,0.8339 -4.3778,0 -9.0159,-0.3648 -14.0187,-3.3877 -4.7427,-2.8661 -9.0681,-8.7029 -9.0681,-17.041 0,-14.3836 11.3088,-20.4287 24.0769,-20.4287 4.0646,0 9.1718,0.5731 12.5595,2.3451 0.6256,0.3645 0.6775,0.4691 0.6775,1.8759 z m 18.7089,15.0611 c 0,7.9214 0,9.3804 0.1041,11.0483 0.104,1.8238 0.5213,2.7096 1.9281,2.9701 0.6253,0.1046 1.4593,0.1565 2.0324,0.1565 0.6253,0 0.938,0.1043 0.938,0.4691 0,0.3649 -0.3645,0.4689 -1.0944,0.4689 -2.0325,0 -5.8366,-0.1562 -7.0875,-0.1562 -1.4071,0 -4.6902,0.1562 -7.1396,0.1562 -0.7818,0 -1.1464,-0.104 -1.1464,-0.4689 0,-0.3648 0.3127,-0.4691 0.8859,-0.4691 0.6777,0 1.3031,-0.0519 1.7197,-0.1565 1.7198,-0.3645 2.1368,-1.1985 2.2408,-2.9701 0.1046,-1.6679 0.1046,-3.1269 0.1046,-11.0483 v -9.1721 c 0,-4.7945 0,-8.9116 -0.2608,-11.1002 -0.2083,-1.5114 -0.4691,-2.658 -1.5114,-2.8661 -0.4688,-0.1046 -1.0944,-0.2086 -1.876,-0.2086 -0.6256,0 -0.8336,-0.1565 -0.8336,-0.417 0,-0.3648 0.3645,-0.5213 1.042,-0.5213 1.0423,0 2.3972,0.1043 3.596,0.1043 1.2509,0.0522 2.3973,0.0522 2.9707,0.0522 2.1365,0 4.0128,-0.0522 6.3576,-0.1565 2.3451,-0.0521 5.0553,-0.1562 8.8072,-0.1562 2.7102,0 2.9704,0.2605 3.2834,1.4071 0.417,1.5112 0.7815,5.4199 0.7815,5.993 0,0.6254 -0.0522,0.8859 -0.4167,0.8859 -0.417,0 -0.5213,-0.3127 -0.5732,-0.7818 -0.1046,-0.9899 -0.7299,-2.4492 -1.3552,-3.1266 -1.3025,-1.4072 -3.3353,-1.4593 -6.097,-1.4593 -4.0652,0 -5.4199,0.3648 -6.306,1.1466 -1.0942,0.9383 -1.0942,4.5337 -1.0942,11.2045 z m 37.7306,-25.0146 c 13.2366,0 21.5748,9.4325 21.5748,21.3667 0,11.9338 -8.0777,19.4907 -21.0541,19.4907 -15.6342,0 -21.5232,-11.5174 -21.5232,-20.4287 0,-9.2245 6.0455,-20.4287 21.0025,-20.4287 z m 2.1883,2.6056 c -10.0057,0 -15.9987,8.5986 -15.9987,19.4383 0,12.9764 6.8269,16.3119 12.82,16.3119 8.5467,0 15.2693,-7.2436 15.2693,-18.9175 0,-15.0611 -8.4424,-16.8327 -12.0906,-16.8327 z m 27.9335,13.2369 c 0,-4.7945 0,-8.9116 -0.2608,-11.1002 -0.2084,-1.5114 -0.4691,-2.658 -1.5114,-2.8661 -0.4689,-0.1046 -1.0945,-0.2086 -1.876,-0.2086 -0.6256,0 -0.8337,-0.1565 -0.8337,-0.417 0,-0.3648 0.3646,-0.5213 1.042,-0.5213 1.0423,0 2.3973,0.1043 3.5961,0.1043 1.2509,0.0522 2.3972,0.0522 2.9707,0.0522 0.7812,0 2.3448,-0.0522 3.9081,-0.1565 1.5114,-0.0521 3.0229,-0.1562 3.6482,-0.1562 9.589,0 13.9144,5.7847 13.9144,11.361 0,6.097 -5.2115,9.7971 -9.4847,11.2567 2.8661,2.2929 5.3158,4.8464 5.3158,9.1199 0,2.7618 -1.6679,7.8168 -11.1008,7.8168 -1.7716,0 -3.8041,-0.1562 -6.3575,-0.1562 -1.0426,0 -4.3257,0.1562 -7.0877,0.1562 -0.7818,0 -1.1464,-0.104 -1.1464,-0.4689 0,-0.3648 0.3127,-0.4691 0.8858,-0.4691 0.7297,0 1.6158,-0.0519 2.0325,-0.1565 1.7198,-0.3645 2.1367,-1.1985 2.2408,-2.9701 0.1046,-1.6679 0.1046,-3.1269 0.1046,-11.0483 z m 6.2535,21.1581 c 0,0.5734 0.1043,0.7818 0.4688,0.8861 0.5213,0.1043 0.9905,0.1043 1.7198,0.1043 4.4819,0 6.5143,-4.5859 6.5143,-8.0779 0,-2.5534 -0.7815,-4.4294 -2.1365,-5.5239 -0.8858,-0.7817 -2.0324,-0.9904 -3.7522,-0.9904 -1.1987,0 -1.9803,0.0522 -2.4494,0.1565 -0.2086,0.0522 -0.3648,0.1562 -0.3648,0.5734 z m 11.9341,-27.4116 c 0,-5.4198 -3.9605,-6.6708 -6.3059,-6.6708 -1.1985,0 -2.3973,0.0522 -3.8044,0.6253 -1.6676,0.6775 -1.8238,1.5636 -1.8238,5.0029 v 12.3514 c 0,0.2602 0.1043,0.3646 0.3126,0.3646 0.7816,0 1.3029,0 2.2411,-0.0519 2.0325,-0.1046 3.2309,-0.4692 4.3254,-1.251 3.9606,-2.7617 5.055,-7.1396 5.055,-10.3705 z m 30.278,4.7421 c 0.2605,0 0.417,-0.1041 0.5213,-0.3648 l 4.1692,-11.0481 c 0.2605,-0.6253 -0.1046,-1.0944 -0.4691,-1.1985 -0.5213,-0.0521 -0.7294,-0.1564 -0.7294,-0.4691 0,-0.3648 0.6251,-0.3648 1.563,-0.417 4.1692,-0.1043 7.9736,-0.1043 9.8499,-0.1043 1.9281,0 2.3969,0.1043 2.3969,0.5213 0,0.3648 -0.2605,0.417 -0.6772,0.417 -0.6253,0 -1.4071,0.0521 -2.1889,0.2086 -1.0944,0.3127 -2.6056,1.0332 -4.5861,5.7064 -3.3353,7.8951 -11.6734,29.1575 -12.9243,32.0239 -0.521,1.1987 -0.8337,1.6676 -1.3028,1.6676 -0.521,0 -0.8337,-0.5732 -1.459,-2.0846 l -13.0808,-32.7274 c -1.0423,-2.6059 -2.0321,-4.3778 -4.4297,-4.6905 -0.4167,-0.0519 -1.1466,-0.104 -1.6154,-0.104 -0.417,0 -0.6254,-0.1043 -0.6254,-0.417 0,-0.417 0.3127,-0.5213 0.9902,-0.5213 2.7099,0 5.576,0.1565 6.1492,0.1565 1.6157,0 3.8565,-0.1565 5.5244,-0.1565 0.5732,0 0.8858,0.1043 0.8858,0.5213 0,0.3127 -0.1564,0.417 -0.7818,0.417 h -0.7818 c -1.6151,0 -2.0843,0.6775 -2.0843,1.6152 0,0.6256 0.2605,1.8762 0.7815,3.1793 l 2.8143,7.4523 c 0.1043,0.3126 0.2083,0.4167 0.4688,0.4167 z m -10.5789,2.6056 c -0.2086,0 -0.2608,0.1565 -0.2086,0.3651 l 4.7945,12.82 c 0.0522,0.2086 0.1565,0.4691 0.3127,0.4691 0.1564,0 0.2083,-0.2605 0.2605,-0.4691 l 4.6905,-12.8722 c 0.0518,-0.1564 0,-0.3129 -0.2605,-0.3129 z m 37.5219,8.0779 c 0,7.9214 0,9.3804 0.1044,11.0483 0.104,1.8238 0.521,2.7096 1.9278,2.9701 0.6256,0.1046 1.4596,0.1565 2.0324,0.1565 0.6256,0 0.9383,0.1043 0.9383,0.4691 0,0.3649 -0.3645,0.4689 -1.0945,0.4689 -2.0324,0 -5.8368,-0.1562 -7.0874,-0.1562 -1.4071,0 -4.6905,0.1562 -7.1396,0.1562 -0.7818,0 -1.1464,-0.104 -1.1464,-0.4689 0,-0.3648 0.3127,-0.4691 0.8859,-0.4691 0.6774,0 1.303,-0.0519 1.7197,-0.1565 1.7198,-0.3645 2.1368,-1.1985 2.2408,-2.9701 0.1043,-1.6679 0.1043,-3.1269 0.1043,-11.0483 v -9.1721 c 0,-4.7945 0,-8.9116 -0.2608,-11.1002 -0.208,-1.5114 -0.4688,-2.658 -1.5111,-2.8661 -0.4691,-0.1046 -1.0945,-0.2086 -1.8763,-0.2086 -0.6253,0 -0.8333,-0.1565 -0.8333,-0.417 0,-0.3648 0.3645,-0.5213 1.042,-0.5213 1.0423,0 2.3972,0.1043 3.596,0.1043 1.2507,0.0522 2.397,0.0522 2.9704,0.0522 2.1368,0 4.0128,-0.0522 6.3579,-0.1565 2.3451,-0.0521 5.0553,-0.1562 8.8072,-0.1562 2.7099,0 2.9704,0.2605 3.2831,1.4071 0.4173,1.5112 0.7818,5.4199 0.7818,5.993 0,0.6254 -0.0522,0.8859 -0.4167,0.8859 -0.417,0 -0.5213,-0.3127 -0.5732,-0.7818 -0.1046,-0.9899 -0.7299,-2.4492 -1.3552,-3.1266 -1.3028,-1.4072 -3.3353,-1.4593 -6.0973,-1.4593 -4.0649,0 -5.4199,0.3648 -6.3057,1.1466 -1.0945,0.9383 -1.0945,4.5337 -1.0945,11.2045 z" /></g></g></svg>